<svg width="182" height="58" viewBox="0 0 182 58" fill="none" xmlns="http://www.w3.org/2000/svg">
<g opacity="0.6">
<g opacity="0.6">
<g opacity="0.6">
<path opacity="0.6" d="M85.5356 0C85.3983 1.46224 85.2715 2.93391 85.1341 4.39615C85.113 4.61312 81.4145 4.45275 81.4039 4.62256C81.5413 3.16032 81.6681 1.68865 81.8055 0.226412C81.8266 0.00943447 85.5251 0.169808 85.5356 0Z" fill="#F8F8F8"/>
</g>
</g>
</g>
<g opacity="0.6">
<g opacity="0.6">
<path opacity="0.6" d="M54.5939 40.6646C54.8897 41.8909 55.1962 43.1079 55.4921 44.3343C55.5132 44.4286 52.7975 44.9569 52.808 45.0135C52.5122 43.7871 52.2057 42.5702 51.9098 41.3438C51.8887 41.2494 54.6044 40.7212 54.5939 40.6646Z" fill="#F8F8F8"/>
</g>
</g>
<g opacity="0.6">
<g opacity="0.6">
<g opacity="0.6">
<path opacity="0.6" d="M132.416 4.87882C131.793 6.19955 131.17 7.52028 130.546 8.84101C130.536 8.85988 127.936 7.85046 127.947 7.83159C128.57 6.51086 129.194 5.19013 129.817 3.8694C129.817 3.85053 132.427 4.85995 132.416 4.87882Z" fill="#F8F8F8"/>
</g>
</g>
</g>
<g opacity="0.6">
<g opacity="0.6">
<path opacity="0.6" d="M94.4306 14.6163C95.6669 12.9937 96.9033 11.3711 98.129 9.74849C98.1924 9.66359 102.948 12.4371 102.969 12.4088C101.732 14.0314 100.496 15.654 99.2703 17.2767C99.1963 17.3616 94.4517 14.588 94.4306 14.6163Z" fill="#F8F8F8"/>
</g>
</g>
<g opacity="0.6">
<g opacity="0.6">
<g opacity="0.6">
<path opacity="0.6" d="M115.605 41.513C115.668 39.4187 116.672 37.5225 118.426 36.1641C118.521 36.0886 120.561 37.4942 120.751 37.6169C120.931 37.7301 122.981 39.1546 123.044 39.1074C121.279 40.4753 120.286 42.3715 120.223 44.4564C120.223 44.4375 119.441 43.9847 119.536 44.0413C118.986 43.7017 118.437 43.3526 117.898 43.0036C117.359 42.6545 116.809 42.3055 116.27 41.9564C116.175 41.8998 115.605 41.5979 115.605 41.513Z" fill="white"/>
</g>
</g>
</g>
<g opacity="0.6">
<g opacity="0.6">
<g opacity="0.6">
<path opacity="0.6" d="M155.241 35.5011C154.121 34.7558 153.012 34.0106 151.892 33.2653C151.786 33.1993 152.304 31.8314 152.346 31.6804C152.388 31.5389 152.927 30.1616 152.843 30.105C153.963 30.8502 155.072 31.5955 156.192 32.3408C156.298 32.4068 155.78 33.7747 155.738 33.9257C155.685 34.0672 155.146 35.4351 155.241 35.5011Z" fill="#F8F8F8"/>
</g>
</g>
</g>
<g opacity="0.6">
<g opacity="0.6">
<path opacity="0.6" d="M113.481 30.2087C112.16 29.1427 110.829 28.0861 109.508 27.0201C109.402 26.9351 109.983 25.605 110.036 25.454C110.089 25.3031 110.702 23.9824 110.607 23.8975C111.928 24.9635 113.259 26.0201 114.58 27.0861C114.686 27.171 114.104 28.5012 114.052 28.6521C113.988 28.803 113.375 30.1332 113.481 30.2087Z" fill="#F8F8F8"/>
</g>
</g>
<g opacity="0.6">
<g opacity="0.6">
<path opacity="0.6" d="M3.98587 43.5148C2.66499 42.4488 1.33354 41.3922 0.0126643 40.3262C-0.0930061 40.2413 0.488182 38.9111 0.541017 38.7602C0.593852 38.6092 1.20674 37.2885 1.11164 37.2036C2.43252 38.2696 3.76396 39.3262 5.08484 40.3922C5.19052 40.4771 4.60933 41.8073 4.55649 41.9582C4.49309 42.1092 3.8802 43.4394 3.98587 43.5148Z" fill="#F8F8F8"/>
</g>
</g>
<g opacity="0.6">
<path opacity="0.6" d="M54.6875 25.558C51.6231 24.0958 49.7844 21.2939 49.9218 18.2751C49.9429 17.8506 52.4896 16.6053 52.9017 16.3412C53.6097 15.8884 54.3177 15.445 55.0363 15.0016C55.1631 14.9261 55.9239 14.5488 55.9345 14.4639C55.7971 17.4827 57.6358 20.2845 60.7002 21.7468C60.4994 21.6524 58.0056 23.5014 57.7203 23.6807C57.4033 23.8788 55.0257 25.7184 54.6875 25.558Z" fill="white"/>
</g>
<g opacity="0.6">
<g opacity="0.6">
<path opacity="0.6" d="M179.651 37.8594C177.57 37.2839 176.037 35.7462 175.668 33.8594C175.615 33.5576 176.397 32.6991 176.566 32.4349C176.777 32.1047 176.999 31.7651 177.221 31.435C177.274 31.3595 177.517 31.0953 177.496 31.0293C177.855 32.9161 179.398 34.4538 181.479 35.0292C181.226 34.9632 179.958 37.9443 179.651 37.8594Z" fill="#F8F8F8"/>
</g>
</g>
<g opacity="0.6">
<g opacity="0.6">
<g opacity="0.6">
<path opacity="0.6" d="M99.0781 28.9725C97.1549 28.1234 94.8936 28.3499 93.3085 29.5668C93.3508 29.5291 93.4459 29.0951 93.4459 29.1046C93.5621 28.7366 93.6784 28.3593 93.8052 27.9914C93.9214 27.6235 94.0482 27.2555 94.175 26.8782C94.2067 26.7744 94.249 26.4914 94.3335 26.4254C95.908 25.2178 98.1799 24.982 100.103 25.831C100.325 25.9254 98.9196 28.9065 99.0781 28.9725Z" fill="#F8F8F8"/>
</g>
</g>
</g>
<g opacity="0.6">
<g opacity="0.6">
<g opacity="0.6">
<path opacity="0.6" d="M123.141 57.7646C123.279 56.3024 123.405 54.8307 123.543 53.3685C123.564 53.1515 127.262 53.3119 127.273 53.1421C127.136 54.6043 127.009 56.076 126.871 57.5382C126.85 57.7552 123.152 57.5948 123.141 57.7646Z" fill="white"/>
</g>
</g>
</g>
<g opacity="0.6">
<path opacity="0.6" d="M76.3378 28.8308C75.2811 27.812 73.7805 27.3591 72.2694 27.595C72.3645 27.5761 72.6076 26.529 72.6393 26.4158C72.6816 26.2837 72.8929 25.2648 73.0408 25.246C74.5519 25.0007 76.0524 25.4535 77.1092 26.4818C77.2043 26.5761 76.7816 27.529 76.7393 27.661C76.697 27.7837 76.2532 28.7365 76.3378 28.8308Z" fill="#F8F8F8"/>
</g>
<g opacity="0.6">
<path opacity="0.6" d="M31.4481 35.6624C30.3914 34.6435 28.8909 34.1907 27.3798 34.4265C27.4749 34.4077 27.7179 33.3605 27.7496 33.2473C27.7919 33.1152 28.0033 32.0964 28.1512 32.0775C29.6623 31.8322 31.1628 32.2851 32.2195 33.3133C32.3146 33.4077 31.8919 34.3605 31.8497 34.4926C31.8074 34.6152 31.3636 35.568 31.4481 35.6624Z" fill="#F8F8F8"/>
</g>
<g opacity="0.6">
<g opacity="0.6">
<g opacity="0.6">
<path opacity="0.6" d="M131.096 28.284C130.673 26.7179 131.244 25.1519 132.618 24.1425C132.702 24.0765 133.791 24.5953 133.917 24.6425C134.044 24.6897 135.133 25.2274 135.207 25.1708C133.833 26.1802 133.252 27.7462 133.685 29.3122C133.653 29.199 132.533 28.8688 132.385 28.8122C132.206 28.7462 131.138 28.4538 131.096 28.284Z" fill="#F8F8F8"/>
</g>
</g>
</g>
<g opacity="0.6">
<g opacity="0.6">
<path opacity="0.6" d="M72.8731 12.8604C71.7847 12.4924 70.6963 12.1245 69.6079 11.7566C69.6396 11.766 70.3159 10.8227 70.3793 10.7472C70.4427 10.6623 71.0978 9.7189 71.1718 9.74721C72.2602 10.1151 73.3486 10.483 74.437 10.851C74.4053 10.8415 73.729 11.7849 73.6656 11.8604C73.5917 11.9453 72.9471 12.8792 72.8731 12.8604Z" fill="#F8F8F8"/>
</g>
</g>
<g opacity="0.6">
<g opacity="0.6">
<path opacity="0.6" d="M25.8238 9.17041C24.7354 8.8025 23.647 8.43458 22.5586 8.06666C22.5903 8.07609 23.2666 7.13271 23.33 7.05724C23.3934 6.97234 24.0485 6.02896 24.1225 6.05726C25.2109 6.42518 26.2993 6.7931 27.3877 7.16102C27.356 7.15158 26.6797 8.09496 26.6163 8.17043C26.5423 8.25534 25.8977 9.18928 25.8238 9.17041Z" fill="#F8F8F8"/>
</g>
</g>
<g opacity="0.6">
<g opacity="0.6">
<path opacity="0.6" d="M134.382 42.3025C132.649 41.0573 131.593 39.2931 131.434 37.3592C131.424 37.2554 132.998 36.8026 133.157 36.746C133.305 36.6989 134.9 36.246 134.89 36.1611C135.048 38.1045 136.105 39.8592 137.838 41.1044C137.732 41.029 136.295 41.6516 136.115 41.7176C135.925 41.7837 134.552 42.4157 134.382 42.3025Z" fill="#F8F8F8"/>
</g>
</g>
<g opacity="0.6">
<g opacity="0.6">
<g opacity="0.6">
<path opacity="0.6" d="M157.524 46.3401C157.926 45.1514 158.327 43.9627 158.729 42.7646C158.655 42.9722 161.17 43.9439 161.085 44.1797C160.684 45.3684 160.282 46.557 159.881 47.7551C159.955 47.5476 157.45 46.5853 157.524 46.3401Z" fill="#F8F8F8"/>
</g>
</g>
</g>
<g opacity="0.6">
<g opacity="0.6">
<g opacity="0.6">
<path opacity="0.6" d="M69.4054 53.3875C67.6618 52.3781 66.6685 50.6705 66.7636 48.8687C66.7742 48.6423 69.5005 48.614 69.5111 48.4253C69.416 50.2271 70.4093 51.9347 72.1528 52.9441C71.9943 52.8497 70.9905 53.1422 70.7791 53.1799C70.5466 53.2177 69.6167 53.5101 69.4054 53.3875Z" fill="white"/>
</g>
</g>
</g>
<g opacity="0.6">
<g opacity="0.6">
<g opacity="0.6">
<path opacity="0.6" d="M165.121 22.8031C163.61 21.7843 162.099 20.7748 160.588 19.756C160.503 19.6994 162.659 17.0674 162.617 17.0391C164.128 18.0579 165.639 19.0673 167.15 20.0862C167.234 20.1428 165.079 22.7748 165.121 22.8031Z" fill="#F8F8F8"/>
</g>
</g>
</g>
<g opacity="0.6">
<g opacity="0.6">
<g opacity="0.6">
<path opacity="0.6" d="M165.88 8.35975C164.369 7.3409 162.858 6.33149 161.347 5.31264C161.263 5.25603 163.418 2.624 163.376 2.5957C164.887 3.61455 166.398 4.62397 167.909 5.64282C167.994 5.69942 165.838 8.33145 165.88 8.35975Z" fill="#F8F8F8"/>
</g>
</g>
</g>
<g opacity="0.6">
<g opacity="0.6">
<path opacity="0.6" d="M115.943 3.26528C114.738 3.52 113.534 3.77471 112.319 4.02942C112.403 4.01056 111.78 1.5955 111.896 1.57664C113.101 1.32192 114.305 1.06721 115.52 0.8125C115.436 0.831368 116.07 3.24642 115.943 3.26528Z" fill="#F8F8F8"/>
</g>
</g>
</svg>
