<svg width="185" height="58" viewBox="0 0 185 58" fill="none" xmlns="http://www.w3.org/2000/svg">
<g opacity="0.6">
<g opacity="0.6">
<g opacity="0.6">
<path opacity="0.6" d="M97.8052 0C97.9452 1.46224 98.0745 2.93391 98.2145 4.39615C98.2361 4.61312 102.006 4.45275 102.017 4.62256C101.877 3.16032 101.748 1.68865 101.608 0.226412C101.586 0.00943447 97.8159 0.169808 97.8052 0Z" fill="#F8F8F8"/>
</g>
</g>
</g>
<g opacity="0.6">
<g opacity="0.6">
<path opacity="0.6" d="M129.347 40.6646C129.045 41.8909 128.733 43.1079 128.431 44.3343C128.41 44.4286 131.178 44.9569 131.167 45.0135C131.469 43.7871 131.781 42.5702 132.083 41.3438C132.105 41.2494 129.336 40.7212 129.347 40.6646Z" fill="#F8F8F8"/>
</g>
</g>
<g opacity="0.6">
<g opacity="0.6">
<g opacity="0.6">
<path opacity="0.6" d="M50.0147 4.87882C50.6502 6.19955 51.2858 7.52028 51.9213 8.84101C51.9321 8.85988 54.582 7.85046 54.5713 7.83159C53.9357 6.51086 53.3001 5.19013 52.6646 3.8694C52.6646 3.85053 50.0039 4.85995 50.0147 4.87882Z" fill="#F8F8F8"/>
</g>
</g>
</g>
<g opacity="0.6">
<g opacity="0.6">
<path opacity="0.6" d="M88.738 14.6163C87.4777 12.9937 86.2173 11.3711 84.9678 9.74849C84.9031 9.66359 80.0557 12.4371 80.0342 12.4088C81.2945 14.0314 82.5548 15.654 83.8044 17.2767C83.8798 17.3616 88.7164 14.588 88.738 14.6163Z" fill="#F8F8F8"/>
</g>
</g>
<g opacity="0.6">
<g opacity="0.6">
<g opacity="0.6">
<path opacity="0.6" d="M67.1524 41.513C67.0877 39.4187 66.0644 37.5225 64.2762 36.1641C64.1793 36.0886 62.1003 37.4942 61.9064 37.6169C61.7233 37.7301 59.6335 39.1546 59.5688 39.1074C61.3678 40.4753 62.3804 42.3715 62.445 44.4564C62.445 44.4375 63.2421 43.9847 63.1452 44.0413C63.7053 43.7017 64.2655 43.3526 64.8148 43.0036C65.3642 42.6545 65.9244 42.3055 66.4737 41.9564C66.5707 41.8998 67.1524 41.5979 67.1524 41.513Z" fill="white"/>
</g>
</g>
</g>
<g opacity="0.6">
<g opacity="0.6">
<g opacity="0.6">
<path opacity="0.6" d="M26.7471 35.5011C27.889 34.7558 29.02 34.0106 30.1619 33.2653C30.2696 33.1993 29.7418 31.8314 29.6987 31.6804C29.6556 31.5389 29.1062 30.1616 29.1924 30.105C28.0505 30.8502 26.9195 31.5955 25.7776 32.3408C25.6699 32.4068 26.1978 33.7747 26.2408 33.9257C26.2947 34.0672 26.8441 35.4351 26.7471 35.5011Z" fill="#F8F8F8"/>
</g>
</g>
</g>
<g opacity="0.6">
<g opacity="0.6">
<path opacity="0.6" d="M69.3179 30.2087C70.6644 29.1427 72.0217 28.0861 73.3682 27.0201C73.4759 26.9351 72.8835 25.605 72.8296 25.454C72.7757 25.3031 72.151 23.9824 72.2479 23.8975C70.9014 24.9635 69.5441 26.0201 68.1976 27.0861C68.0899 27.171 68.6824 28.5012 68.7362 28.6521C68.8009 28.803 69.4256 30.1332 69.3179 30.2087Z" fill="#F8F8F8"/>
</g>
</g>
<g opacity="0.6">
<g opacity="0.6">
<path opacity="0.6" d="M180.937 43.5148C182.283 42.4488 183.64 41.3922 184.987 40.3262C185.095 40.2413 184.502 38.9111 184.448 38.7602C184.394 38.6092 183.77 37.2885 183.867 37.2036C182.52 38.2696 181.163 39.3262 179.816 40.3922C179.709 40.4771 180.301 41.8073 180.355 41.9582C180.42 42.1092 181.044 43.4394 180.937 43.5148Z" fill="#F8F8F8"/>
</g>
</g>
<g opacity="0.6">
<path opacity="0.6" d="M129.251 25.558C132.375 24.0958 134.25 21.2939 134.11 18.2751C134.088 17.8506 131.492 16.6053 131.072 16.3412C130.35 15.8884 129.628 15.445 128.896 15.0016C128.767 14.9261 127.991 14.5488 127.98 14.4639C128.12 17.4827 126.246 20.2845 123.122 21.7468C123.327 21.6524 125.869 23.5014 126.16 23.6807C126.483 23.8788 128.907 25.7184 129.251 25.558Z" fill="white"/>
</g>
<g opacity="0.6">
<g opacity="0.6">
<path opacity="0.6" d="M1.86356 37.8591C3.98565 37.2837 5.5476 35.7459 5.92462 33.8592C5.97848 33.5573 5.18135 32.6988 5.00899 32.4347C4.79355 32.1045 4.56734 31.7649 4.34113 31.4347C4.28727 31.3592 4.03951 31.0951 4.06105 31.0291C3.69481 32.9158 2.12209 34.4535 0 35.029C0.258529 34.9629 1.55117 37.944 1.86356 37.8591Z" fill="#F8F8F8"/>
</g>
</g>
<g opacity="0.6">
<g opacity="0.6">
<g opacity="0.6">
<path opacity="0.6" d="M83.9998 28.9725C85.9603 28.1234 88.2656 28.3499 89.8814 29.5668C89.8383 29.5291 89.7413 29.0951 89.7413 29.1046C89.6228 28.7366 89.5043 28.3593 89.3751 27.9914C89.2566 27.6235 89.1273 27.2555 88.9981 26.8782C88.9657 26.7744 88.9227 26.4914 88.8365 26.4254C87.2314 25.2178 84.9155 24.982 82.955 25.831C82.7287 25.9254 84.1614 28.9065 83.9998 28.9725Z" fill="#F8F8F8"/>
</g>
</g>
</g>
<g opacity="0.6">
<g opacity="0.6">
<g opacity="0.6">
<path opacity="0.6" d="M59.4702 57.7646C59.3301 56.3024 59.2009 54.8307 59.0608 53.3685C59.0393 53.1515 55.2691 53.3119 55.2583 53.1421C55.3983 54.6043 55.5276 56.076 55.6676 57.5382C55.6892 57.7552 59.4594 57.5948 59.4702 57.7646Z" fill="white"/>
</g>
</g>
</g>
<g opacity="0.6">
<path opacity="0.6" d="M107.181 28.8308C108.259 27.812 109.788 27.3591 111.329 27.595C111.232 27.5761 110.984 26.529 110.952 26.4158C110.909 26.2837 110.693 25.2648 110.542 25.246C109.002 25.0007 107.472 25.4535 106.395 26.4818C106.298 26.5761 106.729 27.529 106.772 27.661C106.815 27.7837 107.268 28.7365 107.181 28.8308Z" fill="#F8F8F8"/>
</g>
<g opacity="0.6">
<path opacity="0.6" d="M152.942 35.6624C154.019 34.6435 155.549 34.1907 157.089 34.4265C156.992 34.4077 156.745 33.3605 156.712 33.2473C156.669 33.1152 156.454 32.0964 156.303 32.0775C154.763 31.8322 153.233 32.2851 152.156 33.3133C152.059 33.4077 152.49 34.3605 152.533 34.4926C152.576 34.6152 153.028 35.568 152.942 35.6624Z" fill="#F8F8F8"/>
</g>
<g opacity="0.6">
<g opacity="0.6">
<g opacity="0.6">
<path opacity="0.6" d="M51.3612 28.284C51.7921 26.7179 51.2104 25.1519 49.81 24.1425C49.7239 24.0765 48.6143 24.5953 48.4851 24.6425C48.3558 24.6897 47.2463 25.2274 47.1709 25.1708C48.5713 26.1802 49.1637 27.7462 48.7221 29.3122C48.7544 29.199 49.8962 28.8688 50.047 28.8122C50.2302 28.7462 51.3181 28.4538 51.3612 28.284Z" fill="#F8F8F8"/>
</g>
</g>
</g>
<g opacity="0.6">
<g opacity="0.6">
<path opacity="0.6" d="M110.713 12.8604C111.822 12.4924 112.932 12.1245 114.041 11.7566C114.009 11.766 113.32 10.8227 113.255 10.7472C113.19 10.6623 112.523 9.7189 112.447 9.74721C111.338 10.1151 110.228 10.483 109.119 10.851C109.151 10.8415 109.84 11.7849 109.905 11.8604C109.98 11.9453 110.638 12.8792 110.713 12.8604Z" fill="#F8F8F8"/>
</g>
</g>
<g opacity="0.6">
<g opacity="0.6">
<path opacity="0.6" d="M158.675 9.17041C159.785 8.8025 160.894 8.43458 162.004 8.06666C161.972 8.07609 161.282 7.13271 161.218 7.05724C161.153 6.97234 160.485 6.02896 160.41 6.05726C159.3 6.42518 158.191 6.7931 157.081 7.16102C157.113 7.15158 157.803 8.09496 157.867 8.17043C157.943 8.25534 158.6 9.18928 158.675 9.17041Z" fill="#F8F8F8"/>
</g>
</g>
<g opacity="0.6">
<g opacity="0.6">
<path opacity="0.6" d="M48.0107 42.3025C49.7773 41.0573 50.8546 39.2931 51.0161 37.3592C51.0269 37.2554 49.4219 36.8026 49.2603 36.746C49.1095 36.6989 47.4829 36.246 47.4937 36.1611C47.3321 38.1045 46.2549 39.8592 44.4883 41.1044C44.596 41.029 46.061 41.6516 46.2441 41.7176C46.438 41.7837 47.8384 42.4157 48.0107 42.3025Z" fill="#F8F8F8"/>
</g>
</g>
<g opacity="0.6">
<g opacity="0.6">
<g opacity="0.6">
<path opacity="0.6" d="M24.4199 46.3401C24.0106 45.1514 23.6012 43.9627 23.1919 42.7646C23.2673 42.9722 20.7035 43.9439 20.7897 44.1797C21.1991 45.3684 21.6084 46.557 22.0177 47.7551C21.9423 47.5476 24.4953 46.5853 24.4199 46.3401Z" fill="#F8F8F8"/>
</g>
</g>
</g>
<g opacity="0.6">
<g opacity="0.6">
<g opacity="0.6">
<path opacity="0.6" d="M114.248 53.3875C116.025 52.3781 117.038 50.6705 116.941 48.8687C116.93 48.6423 114.151 48.614 114.14 48.4253C114.237 50.2271 113.225 51.9347 111.447 52.9441C111.609 52.8497 112.632 53.1422 112.848 53.1799C113.085 53.2177 114.033 53.5101 114.248 53.3875Z" fill="white"/>
</g>
</g>
</g>
<g opacity="0.6">
<g opacity="0.6">
<g opacity="0.6">
<path opacity="0.6" d="M16.6757 22.8031C18.2161 21.7843 19.7565 20.7748 21.2969 19.756C21.3831 19.6994 19.1856 17.0674 19.2287 17.0391C17.6883 18.0579 16.1479 19.0673 14.6075 20.0862C14.5213 20.1428 16.7188 22.7748 16.6757 22.8031Z" fill="#F8F8F8"/>
</g>
</g>
</g>
<g opacity="0.6">
<g opacity="0.6">
<g opacity="0.6">
<path opacity="0.6" d="M15.9018 8.35975C17.4422 7.3409 18.9826 6.33149 20.523 5.31264C20.6091 5.25603 18.4116 2.624 18.4547 2.5957C16.9143 3.61455 15.3739 4.62397 13.8335 5.64282C13.7473 5.69942 15.9448 8.33145 15.9018 8.35975Z" fill="#F8F8F8"/>
</g>
</g>
</g>
<g opacity="0.6">
<g opacity="0.6">
<path opacity="0.6" d="M66.8082 3.26528C68.0362 3.52 69.2642 3.77471 70.503 4.02942C70.4168 4.01056 71.0524 1.5955 70.9339 1.57664C69.7058 1.32192 68.4778 1.06721 67.2391 0.8125C67.3252 0.831368 66.6789 3.24642 66.8082 3.26528Z" fill="#F8F8F8"/>
</g>
</g>
</svg>
