<svg width="289" height="15" viewBox="0 0 289 15" fill="none" xmlns="http://www.w3.org/2000/svg">
<path d="M6.85183 0.581177H8.23472V10.9743H6.85183V6.28568H1.7154V10.9743H0.33252V0.581177H1.7154V4.99631H6.85183V0.581177Z" fill="black"/>
<path d="M16.5724 3.58977H17.8763V11.0135H16.5724V9.72406C15.9402 10.7009 14.992 11.2088 13.7276 11.2088C12.6608 11.2088 11.7521 10.8181 11.0409 10.0757C10.2902 9.29427 9.93457 8.39563 9.93457 7.30161C9.93457 6.20759 10.2902 5.30892 11.0409 4.52748C11.7916 3.74604 12.6608 3.39441 13.7276 3.39441C14.9525 3.39441 15.9007 3.90234 16.5724 4.87914V3.58977ZM13.8857 9.9585C14.6364 9.9585 15.2686 9.72406 15.7822 9.21613C16.2958 8.70819 16.5329 8.08305 16.5329 7.30161C16.5329 6.55924 16.2958 5.93407 15.7822 5.42614C15.2686 4.9182 14.6364 4.64469 13.8857 4.64469C13.135 4.64469 12.5028 4.9182 11.9891 5.42614C11.4755 5.93407 11.2384 6.55924 11.2384 7.30161C11.2384 8.04398 11.4755 8.70819 11.9891 9.21613C12.5028 9.68499 13.135 9.9585 13.8857 9.9585Z" fill="black"/>
<path d="M24.0002 3.39441C25.067 3.39441 25.9363 3.78512 26.687 4.52748C27.4377 5.30892 27.7933 6.2076 27.7933 7.30161C27.7933 8.39563 27.4377 9.33335 26.687 10.0757C25.9363 10.8181 25.067 11.2088 24.0002 11.2088C22.7359 11.2088 21.7876 10.7009 21.1554 9.72406V13.9829H19.8516V3.58977H21.1554V4.87914C21.8271 3.86327 22.7754 3.39441 24.0002 3.39441ZM23.8422 9.95851C24.5929 9.95851 25.2251 9.72406 25.7387 9.21613C26.2523 8.70819 26.4894 8.08305 26.4894 7.30161C26.4894 6.55924 26.2523 5.93407 25.7387 5.42614C25.2251 4.9182 24.5929 4.6447 23.8422 4.6447C23.0915 4.6447 22.4593 4.9182 21.9456 5.42614C21.432 5.93407 21.1949 6.55924 21.1949 7.30161C21.1949 8.04398 21.432 8.70819 21.9456 9.21613C22.4593 9.68499 23.0915 9.95851 23.8422 9.95851Z" fill="black"/>
<path d="M33.5222 3.39441C34.589 3.39441 35.4582 3.78512 36.2089 4.52748C36.9596 5.30892 37.3152 6.2076 37.3152 7.30161C37.3152 8.39563 36.9596 9.33335 36.2089 10.0757C35.4582 10.8181 34.589 11.2088 33.5222 11.2088C32.2578 11.2088 31.3096 10.7009 30.6774 9.72406V13.9829H29.3735V3.58977H30.6774V4.87914C31.3491 3.86327 32.2973 3.39441 33.5222 3.39441ZM33.3641 9.95851C34.1149 9.95851 34.747 9.72406 35.2607 9.21613C35.7743 8.70819 36.0114 8.08305 36.0114 7.30161C36.0114 6.55924 35.7743 5.93407 35.2607 5.42614C34.747 4.9182 34.1149 4.6447 33.3641 4.6447C32.6134 4.6447 31.9813 4.9182 31.4676 5.42614C30.954 5.93407 30.7169 6.55924 30.7169 7.30161C30.7169 8.04398 30.954 8.70819 31.4676 9.21613C31.9813 9.68499 32.6134 9.95851 33.3641 9.95851Z" fill="black"/>
<path d="M39.567 2.65204C39.3299 2.65204 39.0929 2.57391 38.9348 2.41762C38.7768 2.26133 38.6978 2.02688 38.6978 1.79245C38.6978 1.55802 38.7768 1.36267 38.9348 1.16731C39.0929 0.971948 39.3299 0.893799 39.567 0.893799C39.8041 0.893799 40.0016 0.971948 40.1992 1.16731C40.3572 1.3236 40.4362 1.55802 40.4362 1.79245C40.4362 2.02688 40.3572 2.22226 40.1992 2.41762C40.0016 2.57391 39.8041 2.65204 39.567 2.65204ZM38.8953 11.0135V3.58978H40.1992V11.0135H38.8953Z" fill="black"/>
<path d="M45.9679 3.39441C46.4025 3.39441 46.7976 3.47254 47.1532 3.62883C47.5088 3.78512 47.8249 3.98047 48.0619 4.25397C48.299 4.52748 48.4966 4.84005 48.6546 5.23078C48.8127 5.6215 48.8522 6.05131 48.8522 6.52017V11.0916H47.5483V6.5983C47.5483 6.01222 47.3903 5.54336 47.0347 5.19171C46.7186 4.87914 46.2444 4.68378 45.6518 4.68378C45.0196 4.68378 44.4664 4.87914 44.0713 5.26986C43.6762 5.66058 43.4787 6.28574 43.4787 7.10625V11.0525H42.1748V3.62883H43.4787V4.68378C44.0318 3.78512 44.8616 3.39441 45.9679 3.39441Z" fill="black"/>
<path d="M51.6173 7.88784C51.7358 8.55206 52.0519 9.06 52.5261 9.45072C53.0002 9.84144 53.5929 9.99771 54.3436 9.99771C55.3313 9.99771 56.0425 9.64607 56.5167 8.9037L57.623 9.52884C56.8723 10.6619 55.766 11.209 54.3041 11.209C53.1187 11.209 52.131 10.8573 51.3802 10.1149C50.6295 9.37256 50.2739 8.43485 50.2739 7.30176C50.2739 6.16867 50.6295 5.23094 51.3802 4.48857C52.131 3.7462 53.0397 3.35547 54.225 3.35547C55.3313 3.35547 56.2401 3.74619 56.9118 4.52763C57.623 5.27 57.9786 6.20774 57.9786 7.30176C57.9786 7.49712 57.9786 7.69248 57.9391 7.88784H51.6173ZM54.225 4.60578C53.5138 4.60578 52.9607 4.80114 52.4865 5.19186C52.0124 5.58258 51.7358 6.09052 51.6173 6.75474H56.6352C56.5167 6.05144 56.2401 5.50444 55.8055 5.1528C55.3313 4.80115 54.8177 4.60578 54.225 4.60578Z" fill="black"/>
<path d="M60.2713 5.58243C60.2713 5.85594 60.4294 6.09036 60.7059 6.28572C60.9825 6.44201 61.3381 6.59832 61.7727 6.71553C62.0493 6.79368 62.3654 6.87181 62.6815 6.94995C62.9976 7.06717 63.3137 7.18439 63.5507 7.34067C63.8273 7.49696 64.0249 7.7314 64.2224 8.0049C64.3805 8.27841 64.4595 8.59098 64.4595 8.9817C64.4595 9.64593 64.1829 10.1929 63.6693 10.5836C63.1556 10.9744 62.4839 11.2088 61.6542 11.2088C60.9035 11.2088 60.3108 11.0525 59.7577 10.7399C59.244 10.4274 58.8489 9.99758 58.6514 9.45057L59.7972 8.82541C59.9157 9.17705 60.1528 9.45056 60.4689 9.685C60.785 9.88036 61.1801 9.99757 61.6542 9.99757C62.0888 9.99757 62.4444 9.91943 62.721 9.76314C62.9976 9.60686 63.1556 9.33335 63.1556 8.9817C63.1556 8.7082 62.9976 8.47377 62.721 8.27841C62.4444 8.12212 62.0888 7.96584 61.6542 7.88769C61.3381 7.80955 61.0615 7.7314 60.7059 7.61418C60.3898 7.49697 60.0738 7.37975 59.8367 7.22346C59.5601 7.06717 59.3626 6.83273 59.165 6.5983C59.007 6.32479 58.9279 6.01222 58.9279 5.6215C58.9279 4.99634 59.165 4.44934 59.6787 4.01955C60.1923 3.58976 60.8245 3.39441 61.5752 3.39441C62.1678 3.39441 62.721 3.51163 63.1951 3.78513C63.6693 4.05863 64.0249 4.44934 64.2619 4.9182L63.1556 5.54337C62.879 4.91822 62.3259 4.60563 61.5357 4.60563C61.1801 4.60563 60.864 4.68378 60.5874 4.87914C60.3898 5.03543 60.2713 5.26986 60.2713 5.58243Z" fill="black"/>
<path d="M66.7108 5.58243C66.7108 5.85594 66.8688 6.09036 67.1454 6.28572C67.422 6.44201 67.7776 6.59832 68.2122 6.71553C68.4888 6.79368 68.8049 6.87181 69.1209 6.94995C69.437 7.06717 69.7531 7.18439 69.9902 7.34067C70.2668 7.49696 70.4643 7.7314 70.6619 8.0049C70.8199 8.27841 70.8989 8.59098 70.8989 8.9817C70.8989 9.64593 70.6224 10.1929 70.1087 10.5836C69.5951 10.9744 68.9234 11.2088 68.0937 11.2088C67.3429 11.2088 66.7503 11.0525 66.1971 10.7399C65.6835 10.4274 65.2884 9.99758 65.0908 9.45057L66.2366 8.82541C66.3552 9.17705 66.5922 9.45056 66.9083 9.685C67.2244 9.88036 67.6195 9.99757 68.0937 9.99757C68.5283 9.99757 68.8839 9.91943 69.1605 9.76314C69.437 9.60686 69.5951 9.33335 69.5951 8.9817C69.5951 8.7082 69.437 8.47377 69.1605 8.27841C68.8839 8.12212 68.5283 7.96584 68.0937 7.88769C67.7776 7.80955 67.501 7.7314 67.1454 7.61418C66.8293 7.49697 66.5132 7.37975 66.2762 7.22346C65.9996 7.06717 65.802 6.83273 65.6045 6.5983C65.4464 6.32479 65.3674 6.01222 65.3674 5.6215C65.3674 4.99634 65.6045 4.44934 66.1181 4.01955C66.6318 3.58976 67.2639 3.39441 68.0146 3.39441C68.6073 3.39441 69.1605 3.51163 69.6346 3.78513C70.1087 4.05863 70.4643 4.44934 70.7014 4.9182L69.5951 5.54337C69.3185 4.91822 68.7654 4.60563 67.9751 4.60563C67.6195 4.60563 67.3034 4.68378 67.0269 4.87914C66.8293 5.03543 66.7108 5.26986 66.7108 5.58243Z" fill="black"/>
<path d="M81.3294 11.2087C79.7094 11.2087 78.4056 10.7008 77.3783 9.64582C76.351 8.62994 75.7979 7.34055 75.7979 5.81674C75.7979 4.29293 76.3115 3.00356 77.3783 1.98769C78.4056 0.932741 79.7094 0.424805 81.3294 0.424805C81.8035 0.424805 82.2777 0.502949 82.7123 0.620165C83.1469 0.737381 83.5815 0.893664 83.9766 1.1281C84.3717 1.36253 84.7273 1.59696 85.0434 1.90954C85.3595 2.22211 85.6361 2.57377 85.8732 2.96449L84.6483 3.66778C84.3322 3.0817 83.8976 2.65191 83.3049 2.30026C82.7123 1.94861 82.0406 1.79233 81.3294 1.79233C80.1046 1.79233 79.1168 2.18305 78.3661 2.96449C77.6154 3.74593 77.2203 4.68366 77.2203 5.85583C77.2203 7.02799 77.6154 7.9657 78.3661 8.74714C79.1168 9.52858 80.1046 9.9193 81.3294 9.9193C82.0406 9.9193 82.7123 9.76302 83.3049 9.41137C83.8976 9.05972 84.3322 8.62993 84.6483 8.04385L85.8732 8.74714C85.4385 9.52858 84.8064 10.1537 83.9766 10.5835C83.1864 10.9743 82.2777 11.2087 81.3294 11.2087Z" fill="black"/>
<path d="M93.6978 10.0757C92.9471 10.8181 91.9988 11.2088 90.8925 11.2088C89.7862 11.2088 88.8379 10.8181 88.0872 10.0757C87.3365 9.33335 86.9414 8.39563 86.9414 7.30161C86.9414 6.20759 87.3365 5.26985 88.0872 4.52748C88.8379 3.78512 89.7862 3.39441 90.8925 3.39441C91.9988 3.39441 92.9471 3.78512 93.6978 4.52748C94.488 5.30892 94.8436 6.20759 94.8436 7.30161C94.8436 8.39563 94.4485 9.29427 93.6978 10.0757ZM90.8925 9.9585C91.6432 9.9585 92.2754 9.685 92.789 9.17706C93.3027 8.66913 93.5397 8.04397 93.5397 7.26253C93.5397 6.52016 93.3027 5.85595 92.789 5.34801C92.2754 4.84007 91.6432 4.56657 90.8925 4.56657C90.1418 4.56657 89.5096 4.84007 88.996 5.34801C88.4823 5.85595 88.2453 6.48108 88.2453 7.26253C88.2453 8.00489 88.4823 8.66913 88.996 9.17706C89.5096 9.685 90.1418 9.9585 90.8925 9.9585Z" fill="black"/>
<path d="M104.523 3.39441C104.958 3.39441 105.313 3.47255 105.669 3.58977C106.024 3.74606 106.301 3.94142 106.578 4.17585C106.815 4.44935 107.012 4.76192 107.17 5.11356C107.289 5.50428 107.368 5.89501 107.368 6.36387V10.9744H106.024V6.40294C106.024 5.81686 105.866 5.38708 105.59 5.0745C105.313 4.76193 104.879 4.60563 104.365 4.60563C103.812 4.60563 103.338 4.801 103.022 5.15265C102.706 5.5043 102.508 6.09036 102.508 6.87181V11.0135H101.204V6.44202C101.204 5.85594 101.046 5.42614 100.77 5.11356C100.493 4.80099 100.098 4.6447 99.6237 4.6447C99.0705 4.6447 98.5964 4.84006 98.2408 5.19171C97.8852 5.58243 97.6876 6.12944 97.6876 6.87181V11.0135H96.3838V3.58977H97.6876V4.60563C98.2013 3.78512 98.952 3.39441 99.9398 3.39441C100.967 3.39441 101.678 3.82418 102.152 4.6447C102.666 3.78511 103.456 3.39441 104.523 3.39441Z" fill="black"/>
<path d="M110.094 7.88784C110.213 8.55206 110.529 9.06 111.003 9.45072C111.477 9.80237 112.07 9.99771 112.821 9.99771C113.808 9.99771 114.52 9.64607 114.994 8.9037L116.1 9.52884C115.349 10.6619 114.243 11.209 112.781 11.209C111.596 11.209 110.608 10.8573 109.857 10.1149C109.107 9.37256 108.751 8.43485 108.751 7.30176C108.751 6.16867 109.107 5.23094 109.857 4.48857C110.608 3.7462 111.517 3.35547 112.702 3.35547C113.808 3.35547 114.717 3.74619 115.389 4.52763C116.1 5.27 116.456 6.20774 116.456 7.30176C116.456 7.49712 116.456 7.69248 116.416 7.88784H110.094ZM112.663 4.60578C111.951 4.60578 111.398 4.80114 110.924 5.19186C110.45 5.58258 110.173 6.09052 110.055 6.75474H115.112C114.994 6.05144 114.717 5.50444 114.283 5.1528C113.808 4.80115 113.295 4.60578 112.663 4.60578Z" fill="black"/>
<path d="M118.748 5.58243C118.748 5.85594 118.906 6.09036 119.182 6.28572C119.459 6.44201 119.815 6.59832 120.249 6.71553C120.526 6.79368 120.842 6.87181 121.158 6.94995C121.474 7.06717 121.79 7.18439 122.027 7.34067C122.304 7.49696 122.501 7.7314 122.699 8.0049C122.857 8.27841 122.936 8.59098 122.936 8.9817C122.936 9.64593 122.659 10.1929 122.146 10.5836C121.632 10.9744 120.96 11.2088 120.131 11.2088C119.38 11.2088 118.787 11.0525 118.234 10.7399C117.681 10.4274 117.325 9.99758 117.128 9.45057L118.274 8.82541C118.392 9.17705 118.629 9.45056 118.945 9.685C119.262 9.88036 119.657 9.99757 120.131 9.99757C120.565 9.99757 120.921 9.91943 121.198 9.76314C121.474 9.60686 121.632 9.33335 121.632 8.9817C121.632 8.7082 121.474 8.47377 121.198 8.27841C120.921 8.12212 120.565 7.96584 120.131 7.88769C119.815 7.80955 119.538 7.7314 119.182 7.61418C118.827 7.49697 118.55 7.37975 118.313 7.22346C118.037 7.06717 117.839 6.83273 117.642 6.5983C117.484 6.32479 117.404 6.01222 117.404 5.6215C117.404 4.99634 117.642 4.44934 118.155 4.01955C118.669 3.58976 119.301 3.39441 120.052 3.39441C120.644 3.39441 121.198 3.51163 121.672 3.78513C122.146 4.05863 122.501 4.44934 122.738 4.9182L121.632 5.54337C121.356 4.91822 120.802 4.60563 120.012 4.60563C119.657 4.60563 119.341 4.68378 119.064 4.87914C118.866 5.03543 118.748 5.26986 118.748 5.58243Z" fill="black"/>
<path d="M134.472 1.90961H129.81V5.26982H134.275V6.55919H129.81V10.9743H128.427V0.581177H134.472V1.90961Z" fill="black"/>
<path d="M137.358 4.83993C137.792 3.9022 138.582 3.47241 139.689 3.47241V4.83993C139.057 4.80086 138.503 4.99624 138.029 5.34789C137.555 5.69954 137.318 6.28562 137.318 7.10613V11.0524H136.054V3.62871H137.358V4.83993Z" fill="black"/>
<path d="M147.313 10.0757C146.562 10.8181 145.614 11.2088 144.508 11.2088C143.401 11.2088 142.453 10.8181 141.702 10.0757C140.952 9.33335 140.557 8.39563 140.557 7.30161C140.557 6.20759 140.952 5.26985 141.702 4.52748C142.453 3.78512 143.401 3.39441 144.508 3.39441C145.614 3.39441 146.562 3.78512 147.313 4.52748C148.103 5.30892 148.459 6.20759 148.459 7.30161C148.459 8.39563 148.064 9.29427 147.313 10.0757ZM144.508 9.9585C145.258 9.9585 145.891 9.685 146.404 9.17706C146.918 8.66913 147.155 8.04397 147.155 7.26253C147.155 6.52016 146.918 5.85595 146.404 5.34801C145.891 4.84007 145.258 4.56657 144.508 4.56657C143.757 4.56657 143.125 4.84007 142.611 5.34801C142.098 5.85595 141.86 6.48108 141.86 7.26253C141.86 8.00489 142.098 8.66913 142.611 9.17706C143.125 9.685 143.757 9.9585 144.508 9.9585Z" fill="black"/>
<path d="M158.139 3.39441C158.573 3.39441 158.929 3.47255 159.285 3.58977C159.64 3.74606 159.917 3.94142 160.193 4.17585C160.43 4.44935 160.628 4.76192 160.786 5.11356C160.905 5.50428 160.984 5.89501 160.984 6.36387V10.9744H159.68V6.40294C159.68 5.81686 159.522 5.38708 159.245 5.0745C158.969 4.76193 158.534 4.60563 158.02 4.60563C157.467 4.60563 156.993 4.801 156.677 5.15265C156.361 5.5043 156.163 6.09036 156.163 6.87181V11.0135H154.859V6.44202C154.859 5.85594 154.701 5.42614 154.425 5.11356C154.148 4.80099 153.753 4.6447 153.279 4.6447C152.726 4.6447 152.252 4.84006 151.896 5.19171C151.54 5.58243 151.343 6.12944 151.343 6.87181V11.0135H150.039V3.58977H151.343V4.60563C151.857 3.78512 152.607 3.39441 153.595 3.39441C154.622 3.39441 155.334 3.82418 155.808 4.6447C156.282 3.78511 157.072 3.39441 158.139 3.39441Z" fill="black"/>
<path d="M173.43 0.581177V1.87055H170.309V10.9743H168.926V1.87055H165.844V0.581177H173.43Z" fill="black"/>
<path d="M178.408 3.39434C178.843 3.39434 179.238 3.47248 179.594 3.62877C179.949 3.78505 180.265 3.98041 180.502 4.25391C180.739 4.52741 180.937 4.83999 181.095 5.23071C181.253 5.62143 181.293 6.05124 181.293 6.52011V11.0915H179.989V6.59823C179.989 6.01215 179.831 5.5433 179.475 5.19165C179.159 4.87907 178.685 4.68372 178.092 4.68372C177.46 4.68372 176.907 4.87908 176.512 5.2698C176.117 5.66052 175.919 6.28567 175.919 7.10619V11.0525H174.615V0.659302H175.919V4.72278C176.512 3.78505 177.302 3.39434 178.408 3.39434Z" fill="black"/>
<path d="M184.06 7.88784C184.178 8.55206 184.494 9.06 184.968 9.45072C185.443 9.80237 186.035 9.99771 186.786 9.99771C187.774 9.99771 188.485 9.64607 188.959 8.9037L190.065 9.52884C189.315 10.6619 188.208 11.209 186.746 11.209C185.561 11.209 184.573 10.8573 183.823 10.1149C183.072 9.37256 182.716 8.43485 182.716 7.30176C182.716 6.16867 183.072 5.23094 183.823 4.48857C184.573 3.7462 185.482 3.35547 186.667 3.35547C187.774 3.35547 188.682 3.74619 189.354 4.52763C190.065 5.27 190.421 6.20774 190.421 7.30176C190.421 7.49712 190.421 7.69248 190.381 7.88784H184.06ZM186.667 4.60578C185.956 4.60578 185.403 4.80114 184.929 5.19186C184.455 5.58258 184.178 6.09052 184.06 6.75474H189.078C188.959 6.05144 188.682 5.50444 188.248 5.1528C187.813 4.80115 187.26 4.60578 186.667 4.60578Z" fill="black"/>
<path d="M199.192 11.2079C198.204 11.2079 197.374 10.9734 196.663 10.5436C195.952 10.1138 195.478 9.4887 195.201 8.66819L196.387 7.96487C196.782 9.21518 197.73 9.84035 199.192 9.84035C199.903 9.84035 200.456 9.68404 200.851 9.41054C201.246 9.13704 201.404 8.74632 201.404 8.23838C201.404 7.76952 201.207 7.37881 200.851 7.10531C200.654 6.98809 200.417 6.8318 200.101 6.71458C199.784 6.59737 199.389 6.44108 198.955 6.32386L197.927 6.01127C197.69 5.93313 197.414 5.77684 197.058 5.62055C196.703 5.42519 196.466 5.26892 196.307 5.07355C196.149 4.87819 195.991 4.64375 195.833 4.33118C195.715 4.0186 195.636 3.70603 195.636 3.31531C195.636 2.41666 195.952 1.67429 196.584 1.16635C197.216 0.619344 198.006 0.345825 198.915 0.345825C199.745 0.345825 200.496 0.5412 201.088 0.970992C201.681 1.40078 202.155 1.9478 202.471 2.61202L201.286 3.27623C200.851 2.22128 200.022 1.67428 198.876 1.67428C198.323 1.67428 197.848 1.83056 197.493 2.10407C197.137 2.37757 196.979 2.7683 196.979 3.23716C196.979 3.70603 197.137 4.05768 197.493 4.29211C197.848 4.52655 198.402 4.80004 199.192 5.03447L199.824 5.22983C199.903 5.2689 199.942 5.26891 200.061 5.30798C200.14 5.34705 200.259 5.38612 200.377 5.42519C200.496 5.46426 200.614 5.50335 200.693 5.54242C200.772 5.5815 200.851 5.62056 200.93 5.65964C201.009 5.69871 201.088 5.73777 201.167 5.77685C201.246 5.81592 201.325 5.855 201.444 5.93314C201.641 6.05036 201.8 6.1285 201.918 6.24572C202.037 6.36293 202.155 6.48015 202.274 6.63644C202.471 6.8318 202.59 7.06623 202.669 7.30067C202.748 7.57417 202.787 7.84767 202.787 8.19932C202.787 9.09797 202.432 9.84033 201.76 10.3873C201.167 10.9343 200.298 11.2079 199.192 11.2079Z" fill="black"/>
<path d="M205.04 2.65204C204.803 2.65204 204.566 2.57391 204.408 2.41762C204.25 2.26133 204.171 2.02688 204.171 1.79245C204.171 1.55802 204.25 1.36267 204.408 1.16731C204.566 1.01102 204.803 0.893799 205.04 0.893799C205.277 0.893799 205.475 0.971948 205.672 1.16731C205.83 1.3236 205.909 1.55802 205.909 1.79245C205.909 2.02688 205.83 2.22226 205.672 2.41762C205.475 2.57391 205.277 2.65204 205.04 2.65204ZM204.368 11.0135V3.58978H205.672V11.0135H204.368Z" fill="black"/>
<path d="M215.785 3.39441C216.22 3.39441 216.576 3.47255 216.931 3.58977C217.287 3.74606 217.563 3.94142 217.84 4.17585C218.077 4.44935 218.274 4.76192 218.433 5.11356C218.551 5.50428 218.63 5.89501 218.63 6.36387V10.9744H217.326V6.40294C217.326 5.81686 217.168 5.38708 216.892 5.0745C216.615 4.76193 216.18 4.60563 215.667 4.60563C215.114 4.60563 214.639 4.801 214.323 5.15265C214.007 5.5043 213.81 6.09036 213.81 6.87181V11.0135H212.506V6.44202C212.506 5.85594 212.348 5.42614 212.071 5.11356C211.795 4.80099 211.4 4.6447 210.925 4.6447C210.372 4.6447 209.898 4.84006 209.543 5.19171C209.187 5.58243 208.989 6.12944 208.989 6.87181V11.0135H207.686V3.58977H208.989V4.60563C209.503 3.78512 210.254 3.39441 211.242 3.39441C212.269 3.39441 212.98 3.82418 213.454 4.6447C213.968 3.78511 214.758 3.39441 215.785 3.39441Z" fill="black"/>
<path d="M224.597 3.39441C225.664 3.39441 226.533 3.78512 227.284 4.52748C228.034 5.30892 228.39 6.2076 228.39 7.30161C228.39 8.39563 228.034 9.33335 227.284 10.0757C226.533 10.8181 225.664 11.2088 224.597 11.2088C223.333 11.2088 222.384 10.7009 221.752 9.72406V13.9829H220.448V3.58977H221.752V4.87914C222.384 3.86327 223.333 3.39441 224.597 3.39441ZM224.439 9.95851C225.19 9.95851 225.822 9.72406 226.335 9.21613C226.849 8.70819 227.086 8.08305 227.086 7.30161C227.086 6.55924 226.849 5.93407 226.335 5.42614C225.822 4.9182 225.19 4.6447 224.439 4.6447C223.688 4.6447 223.056 4.9182 222.542 5.42614C222.029 5.93407 221.792 6.55924 221.792 7.30161C221.792 8.04398 222.029 8.70819 222.542 9.21613C223.016 9.68499 223.649 9.95851 224.439 9.95851Z" fill="black"/>
<path d="M229.97 11.0134V0.151367H231.274V11.0134H229.97Z" fill="black"/>
<path d="M234.199 7.88784C234.317 8.55206 234.633 9.06 235.108 9.45072C235.582 9.80237 236.174 9.99771 236.925 9.99771C237.913 9.99771 238.624 9.64607 239.098 8.9037L240.205 9.52884C239.454 10.6619 238.348 11.209 236.886 11.209C235.7 11.209 234.712 10.8573 233.962 10.1149C233.211 9.37256 232.855 8.43485 232.855 7.30176C232.855 6.16867 233.211 5.23094 233.962 4.48857C234.712 3.7462 235.621 3.35547 236.807 3.35547C237.913 3.35547 238.822 3.74619 239.493 4.52763C240.205 5.27 240.56 6.20774 240.56 7.30176C240.56 7.49712 240.56 7.69248 240.521 7.88784H234.199ZM236.807 4.60578C236.095 4.60578 235.542 4.80114 235.068 5.19186C234.594 5.58258 234.317 6.09052 234.199 6.75474H239.217C239.098 6.05144 238.822 5.50444 238.387 5.1528C237.913 4.80115 237.399 4.60578 236.807 4.60578Z" fill="black"/>
<path d="M252.689 0.581177V1.87055H249.567V10.9743H248.184V1.87055H245.103V0.581177H252.689Z" fill="black"/>
<path d="M257.668 3.39434C258.103 3.39434 258.498 3.47248 258.853 3.62877C259.209 3.78505 259.525 3.98041 259.762 4.25391C259.999 4.52741 260.197 4.83999 260.355 5.23071C260.513 5.62143 260.552 6.05124 260.552 6.52011V11.0915H259.248V6.59823C259.248 6.01215 259.09 5.5433 258.735 5.19165C258.419 4.87907 257.945 4.68372 257.352 4.68372C256.72 4.68372 256.167 4.87908 255.772 5.2698C255.376 5.66052 255.179 6.28567 255.179 7.10619V11.0525H253.875V0.659302H255.179V4.72278C255.732 3.78505 256.562 3.39434 257.668 3.39434Z" fill="black"/>
<path d="M263.042 2.65204C262.805 2.65204 262.567 2.57391 262.409 2.41762C262.251 2.26133 262.172 2.02688 262.172 1.79245C262.172 1.55802 262.251 1.36267 262.409 1.16731C262.567 1.01102 262.805 0.893799 263.042 0.893799C263.279 0.893799 263.476 0.971948 263.674 1.16731C263.832 1.3236 263.911 1.55802 263.911 1.79245C263.911 2.02688 263.832 2.22226 263.674 2.41762C263.516 2.57391 263.318 2.65204 263.042 2.65204ZM262.409 11.0135V3.58978H263.713V11.0135H262.409Z" fill="black"/>
<path d="M269.442 3.39441C269.877 3.39441 270.272 3.47254 270.628 3.62883C270.983 3.78512 271.299 3.98047 271.537 4.25397C271.774 4.52748 271.971 4.84005 272.129 5.23078C272.287 5.6215 272.327 6.05131 272.327 6.52017V11.0916H271.023V6.5983C271.023 6.01222 270.865 5.54336 270.509 5.19171C270.193 4.87914 269.719 4.68378 269.126 4.68378C268.494 4.68378 267.941 4.87914 267.546 5.26986C267.151 5.66058 266.953 6.28574 266.953 7.10625V11.0525H265.649V3.62883H266.953V4.68378C267.546 3.78512 268.336 3.39441 269.442 3.39441Z" fill="black"/>
<path d="M280.426 3.58977H281.73V10.7009C281.73 11.7949 281.335 12.6545 280.584 13.2405C279.834 13.8657 278.925 14.1783 277.858 14.1783C276.989 14.1783 276.278 14.022 275.685 13.7094C275.092 13.3968 274.618 12.967 274.302 12.3419L275.448 11.7167C275.843 12.5373 276.673 12.9671 277.898 12.9671C278.688 12.9671 279.281 12.7717 279.755 12.381C280.189 11.9903 280.426 11.4042 280.426 10.7009V9.64593C279.755 10.6227 278.806 11.1307 277.582 11.1307C276.515 11.1307 275.606 10.7399 274.855 9.99757C274.105 9.21613 273.749 8.31747 273.749 7.26253C273.749 6.20758 274.105 5.26985 274.855 4.52748C275.606 3.78512 276.475 3.39441 277.582 3.39441C278.806 3.39441 279.755 3.90234 280.426 4.87914V3.58977ZM280.426 7.26253C280.426 6.52016 280.189 5.89501 279.676 5.38707C279.162 4.87914 278.53 4.6447 277.779 4.6447C277.028 4.6447 276.396 4.87914 275.883 5.38707C275.369 5.89501 275.132 6.52016 275.132 7.26253C275.132 8.00489 275.369 8.63004 275.883 9.13798C276.396 9.64591 277.028 9.88036 277.779 9.88036C278.53 9.88036 279.162 9.64591 279.676 9.13798C280.189 8.63004 280.426 8.00489 280.426 7.26253Z" fill="black"/>
<path d="M284.812 5.58243C284.812 5.85594 284.97 6.09036 285.246 6.28572C285.523 6.44201 285.879 6.59832 286.313 6.71553C286.59 6.79368 286.906 6.87181 287.222 6.94995C287.538 7.06717 287.854 7.18439 288.091 7.34067C288.368 7.49696 288.565 7.7314 288.763 8.0049C288.921 8.27841 289 8.59098 289 8.9817C289 9.64593 288.723 10.1929 288.21 10.5836C287.696 10.9744 287.024 11.2088 286.195 11.2088C285.444 11.2088 284.851 11.0525 284.298 10.7399C283.745 10.4274 283.389 9.99758 283.192 9.45057L284.338 8.82541C284.456 9.17705 284.693 9.45056 285.009 9.685C285.325 9.88036 285.721 9.99757 286.195 9.99757C286.629 9.99757 286.985 9.91943 287.262 9.76314C287.538 9.60686 287.696 9.33335 287.696 8.9817C287.696 8.7082 287.538 8.47377 287.262 8.27841C286.985 8.12212 286.629 7.96584 286.195 7.88769C285.879 7.80955 285.602 7.7314 285.246 7.61418C284.93 7.49697 284.614 7.37975 284.377 7.22346C284.14 7.06717 283.903 6.83273 283.706 6.5983C283.547 6.32479 283.468 6.01222 283.468 5.6215C283.468 4.99634 283.706 4.44934 284.219 4.01955C284.733 3.58976 285.365 3.39441 286.116 3.39441C286.708 3.39441 287.262 3.51163 287.736 3.78513C288.21 4.05863 288.565 4.44934 288.802 4.9182L287.696 5.54337C287.42 4.91822 286.866 4.60563 286.076 4.60563C285.721 4.60563 285.404 4.68378 285.128 4.87914C284.93 5.03543 284.812 5.26986 284.812 5.58243Z" fill="black"/>
</svg>
