<svg width="289" height="39" viewBox="0 0 289 39" fill="none" xmlns="http://www.w3.org/2000/svg">
<path d="M0.333496 32.282V7.08057H4.56117L13.0956 18.8412L21.6299 7.08057H25.8971V32.282H21.8275V13.3712L15.0316 22.7484H11.1595L4.40313 13.4102V32.282H0.333496Z" fill="#6BBDDD"/>
<path d="M75.4431 32.282C72.4798 32.282 69.872 31.5787 67.5409 30.1721C65.2492 28.7655 63.5108 27.0073 62.4045 24.8974C61.5352 23.2173 61.1006 21.4591 61.1006 19.6617C61.1006 17.8644 61.5352 16.1062 62.4045 14.4652C63.5108 12.3162 65.2097 10.558 67.5409 9.19044C69.8325 7.78385 72.4798 7.08057 75.4431 7.08057C78.2089 7.08057 80.7771 7.74478 83.0687 9.07323L83.4638 9.26859L81.4883 12.0818L80.9351 11.8083C79.2757 10.8705 77.4186 10.4017 75.4036 10.4017C73.349 10.4017 71.492 10.8705 69.8325 11.8473C68.1731 12.8241 66.9087 14.0745 66.0395 15.5983C65.3283 16.9267 64.9332 18.2942 64.9332 19.7008C64.9332 21.1465 65.2888 22.514 66.0395 23.8425C66.9087 25.3663 68.1731 26.6166 69.8325 27.5934C71.492 28.5702 73.349 29.039 75.4036 29.039C77.4186 29.039 79.2757 28.5702 80.9351 27.6324L81.4883 27.3589L83.4638 30.1721L83.0687 30.3675C80.7771 31.6178 78.2484 32.282 75.4431 32.282Z" fill="#6BBDDD"/>
<path d="M102.233 32.282L98.1631 32.2429V7.08057H116.575V10.4798H102.193V17.9426H113.375V21.3419H102.193V32.282H102.233Z" fill="#6BBDDD"/>
<path d="M119.932 32.2819V7.11951H124.002V28.8435H138.384V32.321H119.932V32.2819Z" fill="#6BBDDD"/>
<path d="M156.007 32.282C152.964 32.282 150.278 31.5396 147.946 30.094C145.576 28.6092 143.877 26.7729 142.849 24.5848C142.099 23.0219 141.743 21.3809 141.743 19.6617C141.743 17.9035 142.178 16.1843 143.007 14.5043C144.114 12.3553 145.813 10.597 148.144 9.19044C150.475 7.78385 153.083 7.08057 156.046 7.08057C159.009 7.08057 161.657 7.78385 163.988 9.19044C166.319 10.597 168.018 12.3553 169.085 14.5043C169.914 16.1062 170.349 17.8254 170.349 19.6617C170.349 21.3418 169.994 22.9829 169.243 24.5848C168.176 26.8119 166.477 28.6483 164.146 30.094C161.736 31.5787 159.049 32.282 156.007 32.282ZM156.007 29C159.049 29 161.538 28.0622 163.514 26.1477C165.45 24.2723 166.438 22.0842 166.438 19.6617C166.438 17.2393 165.45 15.0903 163.514 13.2149C161.578 11.3003 159.049 10.3626 156.007 10.3626C153.873 10.3626 151.977 10.8705 150.278 11.8864C148.579 12.9023 147.354 14.2307 146.524 15.7936C145.892 17.0439 145.576 18.3333 145.576 19.6617C145.576 21.0293 145.892 22.3577 146.524 23.5689C147.314 25.1709 148.579 26.4603 150.278 27.4761C151.937 28.492 153.873 29 156.007 29Z" fill="#6BBDDD"/>
<path d="M180.623 32.282L173.629 7.08057H177.818L182.954 25.5616L190.619 7.08057H194.452L202.117 25.6398L207.214 7.08057H211.402L204.567 31.7741L204.527 31.8913L204.448 32.282H200.497L192.437 12.8632L184.455 32.282H180.623Z" fill="#6BBDDD"/>
<path d="M214.72 32.282V7.11963H233.132V10.5189H218.75V17.9816H229.892V21.3809H218.75V28.8437H233.132V32.3211H214.72V32.282Z" fill="#6BBDDD"/>
<path d="M236.492 32.282V7.08057H250.242C253.6 7.08057 256.169 7.82293 258.026 9.26859C259.843 10.7143 260.791 12.7069 260.791 15.2466C260.791 18.6459 259.211 20.9902 256.05 22.3187L261.187 32.282H256.722L252.099 23.2955C251.506 23.3736 250.874 23.3736 250.282 23.3736H240.601V32.282H236.492ZM240.562 19.9352H250.203C251.309 19.9352 252.297 19.818 253.166 19.5836C255.497 18.9975 256.682 17.5519 256.682 15.2466C256.682 14.0744 256.406 13.1367 255.853 12.3944C255.299 11.652 254.351 11.144 253.008 10.8315C251.98 10.597 251.032 10.5189 250.163 10.5189H240.562V19.9352Z" fill="#6BBDDD"/>
<path d="M276.753 32.2822C272.762 32.2822 269.759 31.4617 267.626 29.8597C265.532 28.2187 264.465 25.9525 264.465 22.983V22.5532H268.297V22.983C268.297 25.0929 269.009 26.6167 270.391 27.5935C271.774 28.5703 273.908 29.0783 276.713 29.0783C281.296 29.0783 284.023 28.2968 284.852 26.773C285.05 26.4214 285.129 25.9134 285.129 25.2101C285.129 24.8194 285.129 24.5459 285.09 24.3505C285.05 24.077 284.971 23.8426 284.892 23.6082C284.576 22.944 283.588 22.3579 281.85 21.8499C281.02 21.6155 279.597 21.3029 277.622 20.9122L275.093 20.4824C274.777 20.4433 274.382 20.3652 273.829 20.248C273.315 20.1698 272.802 20.0526 272.406 19.9745C271.972 19.8963 271.577 19.8182 271.221 19.74C269.917 19.4665 268.771 19.1149 267.784 18.6851C265.532 17.6301 264.386 15.8719 264.386 13.4885C264.386 12.5508 264.544 11.7693 264.899 11.027C265.215 10.3237 265.729 9.7376 266.322 9.26874C266.954 8.79987 267.626 8.40915 268.376 8.09658C269.127 7.784 269.957 7.54957 270.945 7.39328C271.932 7.237 272.841 7.15886 273.71 7.08071C274.58 7.04164 275.528 7.00256 276.595 7.00256C284.773 7.00256 288.843 9.42502 288.843 14.27V14.6998H285.01V14.27C285.01 13.4494 284.773 12.7852 284.339 12.1991C283.904 11.6521 283.233 11.2223 282.403 10.9488C281.534 10.6753 280.664 10.48 279.756 10.4018C278.847 10.2846 277.78 10.2455 276.595 10.2455C274.856 10.2455 273.394 10.3237 272.248 10.48C270.51 10.7144 269.364 11.1833 268.811 11.8475C268.455 12.2773 268.297 12.7852 268.297 13.4494C268.297 14.2309 268.455 14.817 268.811 15.1686C269.285 15.6765 270.352 16.1064 271.972 16.458C272.486 16.5752 273.829 16.8487 275.923 17.2004C278.491 17.6301 280.348 17.9818 281.494 18.2553C283.983 18.8414 285.722 19.5056 286.67 20.248C287.539 20.8731 288.132 21.6155 288.448 22.3579C288.764 23.1393 288.922 24.038 288.922 25.0929C289.001 29.9378 284.931 32.2822 276.753 32.2822Z" fill="#6BBDDD"/>
<path d="M43.5193 32.2818C40.477 32.2818 37.7902 31.5394 35.4591 30.0937C33.0884 28.609 31.3894 26.7726 30.3622 24.5846C29.6115 23.0217 29.2559 21.3807 29.2559 19.6615C29.2559 17.9033 29.6905 16.1841 30.5202 14.504C31.6265 12.355 33.3255 10.5968 35.6566 9.1902C37.9878 7.7836 40.5955 7.08032 43.5588 7.08032C46.5222 7.08032 49.1694 7.7836 51.5005 9.1902C53.8317 10.5968 55.5307 12.355 56.5975 14.504C57.4272 16.106 57.8618 17.8251 57.8618 19.6615C57.8618 21.3416 57.5062 22.9826 56.7555 24.5846C55.6887 26.8117 53.9897 28.6481 51.6586 30.0937C49.2484 31.5785 46.5617 32.2818 43.5193 32.2818ZM43.5193 28.9997C46.5617 28.9997 49.0509 28.062 51.0264 26.1475C52.9625 24.272 53.9502 22.084 53.9502 19.6615C53.9502 17.239 52.9625 15.0901 51.0264 13.2146C49.0904 11.3001 46.5617 10.3624 43.5193 10.3624C41.3857 10.3624 39.4892 10.8703 37.7902 11.8862C36.0913 12.902 34.8664 14.2305 34.0367 15.7934C33.4045 17.0437 33.0884 18.333 33.0884 19.6615C33.0884 21.029 33.4045 22.3575 34.0367 23.5687C34.8269 25.1707 36.0913 26.46 37.7902 27.4759C39.4892 28.4918 41.3857 28.9997 43.5193 28.9997Z" fill="#6BBDDD"/>
<path d="M36.644 4.46262L42.1361 0.0474854H44.4277L49.8407 4.46262H44.7833L43.2424 3.25137L41.7015 4.46262H36.644Z" fill="#6BBDDD"/>
<path d="M41.2676 38.2601V34.939H45.1792V38.2601H41.2676Z" fill="#6BBDDD"/>
</svg>
